<?xml version="1.0" encoding="UTF-8" standalone="no"?>
<!-- Created with Inkscape (http://www.inkscape.org/) -->

<svg
   xmlns:dc="http://purl.org/dc/elements/1.1/"
   xmlns:cc="http://creativecommons.org/ns#"
   xmlns:rdf="http://www.w3.org/1999/02/22-rdf-syntax-ns#"
   xmlns:svg="http://www.w3.org/2000/svg"
   xmlns="http://www.w3.org/2000/svg"
   xmlns:sodipodi="http://sodipodi.sourceforge.net/DTD/sodipodi-0.dtd"
   xmlns:inkscape="http://www.inkscape.org/namespaces/inkscape"
   width="1920px"
   height="1080px"
   viewBox="0 0 1920 1080"
   version="1.1"
   id="SVGRoot"
   inkscape:version="0.92.3 (3ce5693, 2018-03-11)"
   sodipodi:docname="gamejam2.svg">
  <sodipodi:namedview
     id="base"
     pagecolor="#ffffff"
     bordercolor="#666666"
     borderopacity="1.0"
     inkscape:pageopacity="0.0"
     inkscape:pageshadow="2"
     inkscape:zoom="0.35"
     inkscape:cx="960"
     inkscape:cy="540"
     inkscape:document-units="px"
     inkscape:current-layer="layer1"
     showgrid="false"
     inkscape:window-width="1301"
     inkscape:window-height="744"
     inkscape:window-x="65"
     inkscape:window-y="24"
     inkscape:window-maximized="1"
     inkscape:snap-global="false" />
  <defs
     id="defs7018" />
  <metadata
     id="metadata7021">
    <rdf:RDF>
      <cc:Work
         rdf:about="">
        <dc:format>image/svg+xml</dc:format>
        <dc:type
           rdf:resource="http://purl.org/dc/dcmitype/StillImage" />
        <dc:title />
      </cc:Work>
    </rdf:RDF>
  </metadata>
  <g
     id="layer1"
     inkscape:groupmode="layer"
     inkscape:label="Calque 1">
    <rect
       style="fill:#008000;fill-opacity:1"
       id="rect7229"
       width="1988.5714"
       height="625.71429"
       x="-20"
       y="-31.428572" />
    <rect
       style="fill:#cccccc;fill-opacity:1"
       id="rect7223"
       width="11.428572"
       height="71.428574"
       x="542.85712"
       y="374.28571" />
    <rect
       style="fill:#cccccc;fill-opacity:1"
       id="rect7221"
       width="14.285714"
       height="68.571426"
       x="297.14285"
       y="377.14285" />
    <rect
       style="fill:#cccccc;fill-opacity:1"
       id="rect7213"
       width="11.428572"
       height="117.14286"
       x="542.85712"
       y="437.14285" />
    <rect
       style="fill:#cccccc;fill-opacity:1"
       id="rect7211"
       width="11.428572"
       height="114.28571"
       x="297.14285"
       y="437.14285" />
    <rect
       style="fill:#916f6f;fill-opacity:1"
       id="rect7034"
       width="1928.5714"
       height="48.57143"
       x="-2.8571429"
       y="845.71429" />
    <rect
       style="fill:#999999;fill-opacity:1"
       id="rect7036"
       width="1928.5714"
       height="254.28572"
       x="-2.8571429"
       y="591.42859" />
    <ellipse
       style="fill:#000000;fill-opacity:1"
       id="path7040"
       cx="1188.5714"
       cy="301.42856"
       rx="108.57143"
       ry="107.14286" />
    <path
       style="fill:#000000;stroke:#000000;stroke-width:1px;stroke-linecap:butt;stroke-linejoin:miter;stroke-opacity:1"
       d="m 1105.7143,302.85714 -31.4286,308.57143 5.7143,-5.71428 14.2857,5.71428 h 17.1429 l 14.2857,-317.14286 z"
       id="path7070"
       inkscape:connector-curvature="0" />
    <path
       style="fill:#000000;stroke:#000000;stroke-width:1px;stroke-linecap:butt;stroke-linejoin:miter;stroke-opacity:1"
       d="M 1080,600 1051.4286,797.14286 1065.7143,800 1091.4286,585.71429 Z"
       id="path7080"
       inkscape:connector-curvature="0" />
    <path
       style="fill:#000000;stroke:#000000;stroke-width:1px;stroke-linecap:butt;stroke-linejoin:miter;stroke-opacity:1"
       d="m 1108.5714,605.71429 80,77.14285 22.8572,108.57143 h -14.2857 l -25.7143,-100 -82.8572,-82.85714 z"
       id="path7082"
       inkscape:connector-curvature="0" />
    <path
       style="fill:#000000;fill-opacity:1;stroke-width:2.85714293"
       d=""
       id="path7092"
       inkscape:connector-curvature="0" />
    <path
       style="fill:#000000;fill-opacity:1;stroke-width:2.85714293"
       d=""
       id="path7096"
       inkscape:connector-curvature="0" />
    <path
       style="fill:#000000;fill-opacity:1;stroke-width:2.85714293"
       d=""
       id="path7098"
       inkscape:connector-curvature="0" />
    <path
       style="fill:#000000;fill-opacity:1;stroke-width:2.85714293"
       d=""
       id="path7100"
       inkscape:connector-curvature="0" />
    <path
       style="fill:#000000;fill-opacity:1;stroke-width:2.85714293"
       d=""
       id="path7102"
       inkscape:connector-curvature="0" />
    <path
       style="fill:#000000;fill-opacity:1;stroke-width:2.85714293"
       d=""
       id="path7104"
       inkscape:connector-curvature="0" />
    <path
       style="fill:#000000;fill-opacity:1;stroke-width:2.85714293"
       d=""
       id="path7106"
       inkscape:connector-curvature="0" />
    <path
       style="fill:#4d4d4d;fill-opacity:1;stroke-width:2.85714293"
       d=""
       id="path7108"
       inkscape:connector-curvature="0" />
    <rect
       style="fill:#4d4d4d;fill-opacity:1"
       id="rect7110"
       width="1931.4286"
       height="200"
       x="0"
       y="891.42859" />
    <path
       style="fill:#000000;stroke:#000000;stroke-width:1px;stroke-linecap:butt;stroke-linejoin:miter;stroke-opacity:1"
       d="M 1108.5714,465.71429 1165.7143,520 l 65.7143,-8.57143 2.8571,11.42857 -71.4286,8.57143 -60,-48.57143 z"
       id="path7112"
       inkscape:connector-curvature="0" />
    <path
       style="fill:#000000;stroke:#000000;stroke-width:1px;stroke-linecap:butt;stroke-linejoin:miter;stroke-opacity:1"
       d="m 1114.2857,445.71429 48.5714,45.71428 54.2858,11.42857 v -8.57143 l -51.4286,-17.14285 -51.4286,-54.28572 z"
       id="path7114"
       inkscape:connector-curvature="0" />
    <rect
       style="fill:#cccccc;fill-opacity:1"
       id="rect7139"
       width="68.571426"
       height="34.285713"
       x="1217.1428"
       y="485.71429" />
    <path
       style="fill:none;stroke:#000000;stroke-width:1px;stroke-linecap:butt;stroke-linejoin:miter;stroke-opacity:1"
       d="m 1211.4286,482.85714 2.8571,40 74.2857,-2.85714 -2.8571,-34.28571 z"
       id="path7141"
       inkscape:connector-curvature="0" />
    <ellipse
       style="fill:#00ff00;fill-opacity:1"
       id="path7143"
       cx="1231.4286"
       cy="495.71426"
       rx="5.7142859"
       ry="7.1428571" />
    <ellipse
       style="fill:#ff0000;fill-opacity:1"
       id="path7145"
       cx="1228.5714"
       cy="512.85718"
       rx="5.7142859"
       ry="7.1428571" />
    <rect
       style="fill:#cccccc;fill-opacity:1"
       id="rect7149"
       width="191.42857"
       height="288.57144"
       x="1560"
       y="177.14285" />
    <circle
       style="fill:#00ff00;fill-opacity:1"
       id="path7151"
       cx="1607.1428"
       cy="410.00003"
       r="24.285715" />
    <ellipse
       style="fill:#ff0000;fill-opacity:1"
       id="path7153"
       cx="1694.2858"
       cy="410"
       rx="25.714285"
       ry="24.285715" />
    <path
       style="fill:none;stroke:#000000;stroke-width:1px;stroke-linecap:butt;stroke-linejoin:miter;stroke-opacity:1"
       d="M 1537.1429,140 1540,517.14286 1777.1429,514.28571 V 140 Z"
       id="path7159"
       inkscape:connector-curvature="0" />
    <path
       style="fill:#1a1a1a;fill-opacity:1;stroke-width:2.85714293"
       d="M 1541.8811,477.85714 C 1540.8592,457.82143 1540.018,374.25 1540.0116,292.14286 L 1540,142.85714 h 117.1429 117.1428 v 183.86224 183.86225 l -23.5714,1.83491 c -12.9643,1.0092 -64.8373,1.84263 -115.2734,1.85206 l -91.7019,0.0171 z M 1751.4286,321.42857 V 177.14286 H 1655.7143 1560 v 144.28571 144.28572 h 95.7143 95.7143 z"
       id="path7161"
       inkscape:connector-curvature="0" />
    <path
       style="fill:#ffffff;stroke:#000000;stroke-width:1px;stroke-linecap:butt;stroke-linejoin:miter;stroke-opacity:1"
       d="M 1577.1429,231.42857 1574.2857,300 h 17.1429 l -2.8572,-22.85714 h 14.2857 v -8.57143 l -14.2857,-2.85714 v -11.42858 l 25.7143,-2.85714 -2.8571,-14.28571 z"
       id="path7163"
       inkscape:connector-curvature="0" />
    <path
       style="fill:#f9f9f9;stroke:#000000;stroke-width:1px;stroke-linecap:butt;stroke-linejoin:miter;stroke-opacity:1"
       d="M 1614.2857,271.42857 V 300 h 11.4286 v -20 h 17.1428 v -17.14286 z"
       id="path7167"
       inkscape:connector-curvature="0" />
    <path
       style="fill:#ffffff;stroke:#000000;stroke-width:1px;stroke-linecap:butt;stroke-linejoin:miter;stroke-opacity:1"
       d="m 1662.8571,280 17.1429,2.85714 -2.8571,-14.28571 H 1660 L 1654.2857,300 l 17.1429,2.85714 v -5.71428 L 1660,294.28571 Z"
       id="path7169"
       inkscape:connector-curvature="0" />
    <path
       style="fill:none;stroke:#000000;stroke-width:1px;stroke-linecap:butt;stroke-linejoin:miter;stroke-opacity:1"
       d="m 1662.8571,288.57143 h 14.2858 l -5.7143,-14.28572 z"
       id="path7171"
       inkscape:connector-curvature="0" />
    <path
       style="fill:#ffffff;fill-opacity:1;stroke-width:2.85714293"
       d=""
       id="path7173"
       inkscape:connector-curvature="0" />
    <path
       style="fill:#ffffff;fill-opacity:1;stroke-width:2.85714293"
       d="m 1672.8571,282.85714 c -0.9712,-1.57143 0.3146,-2.85714 2.8572,-2.85714 2.5426,0 3.8283,1.28571 2.8571,2.85714 -0.9712,1.57143 -2.2569,2.85715 -2.8571,2.85715 -0.6002,0 -1.886,-1.28572 -2.8572,-2.85715 z"
       id="path7175"
       inkscape:connector-curvature="0" />
    <path
       style="fill:#ffffff;fill-opacity:1;stroke-width:2.85714293"
       d="m 1674.2857,278.57143 c 0,-5.06913 -1.3785,-5.27813 -8.7592,-1.32805 -4.3484,2.32716 -5.5265,2.02261 -5.5265,-1.42857 0,-2.96884 2.7698,-4.38624 8.5714,-4.38624 6.6667,0 8.5715,1.26984 8.5715,5.71429 0,3.14285 -0.6429,5.71428 -1.4286,5.71428 -0.7857,0 -1.4286,-1.92857 -1.4286,-4.28571 z"
       id="path7177"
       inkscape:connector-curvature="0" />
    <path
       style="fill:#ffffff;fill-opacity:1;stroke-width:2.85714293"
       d=""
       id="path7179"
       inkscape:connector-curvature="0" />
    <path
       style="fill:#ffffff;fill-opacity:1;stroke-width:2.85714293"
       d=""
       id="path7181"
       inkscape:connector-curvature="0" />
    <path
       style="fill:#ffffff;fill-opacity:1;stroke-width:2.85714293"
       d="m 1674.2857,278.57143 c 0,-5.06913 -1.3785,-5.27813 -8.7592,-1.32805 -4.3484,2.32716 -5.5265,2.02261 -5.5265,-1.42857 0,-2.96884 2.7698,-4.38624 8.5714,-4.38624 6.6667,0 8.5715,1.26984 8.5715,5.71429 0,3.14285 -0.6429,5.71428 -1.4286,5.71428 -0.7857,0 -1.4286,-1.92857 -1.4286,-4.28571 z"
       id="path7183"
       inkscape:connector-curvature="0" />
    <path
       style="fill:#ffffff;stroke:#000000;stroke-width:1px;stroke-linecap:butt;stroke-linejoin:miter;stroke-opacity:1"
       d="M 1694.2857,271.42857 1691.4286,300 1702.8571,297.14286 1700,282.85714 1708.5714,280 v -11.42857 z"
       id="path7185"
       inkscape:connector-curvature="0" />
    <path
       style="fill:#ffffff;stroke:#000000;stroke-width:1px;stroke-linecap:butt;stroke-linejoin:miter;stroke-opacity:1"
       d="m 1720,280 17.1429,-2.85714 v -8.57143 l -20,-2.85714 v 31.42857 5.71428 L 1731.4286,300 l 2.8571,-8.57143 -14.2857,2.85714 z"
       id="path7189"
       inkscape:connector-curvature="0" />
    <path
       style="fill:none;stroke:#000000;stroke-width:1px;stroke-linecap:butt;stroke-linejoin:miter;stroke-opacity:1"
       d="m 1734.2857,271.42857 v 11.42857 h -11.4286 z"
       id="path7191"
       inkscape:connector-curvature="0" />
    <ellipse
       style="fill:#ffffff;fill-opacity:1"
       id="path7195"
       cx="1648.5714"
       cy="490"
       rx="14.285714"
       ry="12.857142" />
    <rect
       style="fill:#cccccc;fill-opacity:1"
       id="rect7199"
       width="11.428572"
       height="97.14286"
       x="265.71429"
       y="491.42856" />
    <rect
       style="fill:#cccccc;fill-opacity:1"
       id="rect7201"
       width="14.285714"
       height="97.14286"
       x="588.57141"
       y="491.42856" />
    <rect
       style="fill:#550000;fill-opacity:1"
       id="rect7203"
       width="497.14285"
       height="17.142857"
       x="191.42857"
       y="477.14285" />
    <rect
       style="fill:#550000;fill-opacity:1"
       id="rect7205"
       width="500"
       height="14.285714"
       x="197.14285"
       y="457.14285" />
    <rect
       style="fill:#550000;fill-opacity:1"
       id="rect7207"
       width="480"
       height="14.285714"
       x="200"
       y="500" />
    <rect
       style="fill:#550000;fill-opacity:1"
       id="rect7209"
       width="502.85715"
       height="14.285714"
       x="200"
       y="434.28571" />
    <rect
       style="fill:#550000;fill-opacity:1"
       id="rect7225"
       width="494.28571"
       height="62.857143"
       x="205.71428"
       y="342.85715" />
    <path
       style="fill:#000000;stroke:#000000;stroke-width:1px;stroke-linecap:butt;stroke-linejoin:miter;stroke-opacity:1"
       d="M 1097.1429,602.85714 1068.5714,797.14286 1091.4286,580 Z"
       id="path7231"
       inkscape:connector-curvature="0" />
  </g>
</svg>
