<?xml version="1.0" encoding="UTF-8" standalone="no"?>
<!-- Created with Inkscape (http://www.inkscape.org/) -->

<svg
   xmlns:dc="http://purl.org/dc/elements/1.1/"
   xmlns:cc="http://creativecommons.org/ns#"
   xmlns:rdf="http://www.w3.org/1999/02/22-rdf-syntax-ns#"
   xmlns:svg="http://www.w3.org/2000/svg"
   xmlns="http://www.w3.org/2000/svg"
   xmlns:sodipodi="http://sodipodi.sourceforge.net/DTD/sodipodi-0.dtd"
   xmlns:inkscape="http://www.inkscape.org/namespaces/inkscape"
   width="1920px"
   height="1080px"
   viewBox="0 0 1920 1080"
   version="1.1"
   id="SVGRoot"
   inkscape:version="0.92.3 (3ce5693, 2018-03-11)"
   sodipodi:docname="gamejam2.svg">
  <sodipodi:namedview
     id="base"
     pagecolor="#ffffff"
     bordercolor="#666666"
     borderopacity="1.0"
     inkscape:pageopacity="0.0"
     inkscape:pageshadow="2"
     inkscape:zoom="1.979899"
     inkscape:cx="1890.2709"
     inkscape:cy="765.59866"
     inkscape:document-units="px"
     inkscape:current-layer="layer1"
     showgrid="false"
     inkscape:window-width="1301"
     inkscape:window-height="744"
     inkscape:window-x="65"
     inkscape:window-y="24"
     inkscape:window-maximized="1"
     inkscape:snap-global="false" />
  <defs
     id="defs7018" />
  <metadata
     id="metadata7021">
    <rdf:RDF>
      <cc:Work
         rdf:about="">
        <dc:format>image/svg+xml</dc:format>
        <dc:type
           rdf:resource="http://purl.org/dc/dcmitype/StillImage" />
        <dc:title />
      </cc:Work>
    </rdf:RDF>
  </metadata>
  <g
     id="layer1"
     inkscape:groupmode="layer"
     inkscape:label="Calque 1">
    <rect
       style="fill:#008000;fill-opacity:1"
       id="rect7229"
       width="1988.5714"
       height="625.71429"
       x="-24.530844"
       y="-4.530817" />
    <rect
       style="fill:#cccccc;fill-opacity:1"
       id="rect7223"
       width="11.428572"
       height="71.428574"
       x="542.85712"
       y="374.28571" />
    <rect
       style="fill:#cccccc;fill-opacity:1"
       id="rect7221"
       width="14.285714"
       height="68.571426"
       x="297.14285"
       y="377.14285" />
    <rect
       style="fill:#cccccc;fill-opacity:1"
       id="rect7213"
       width="11.428572"
       height="117.14286"
       x="542.85712"
       y="437.14285" />
    <rect
       style="fill:#cccccc;fill-opacity:1"
       id="rect7211"
       width="11.428572"
       height="114.28571"
       x="297.14285"
       y="437.14285" />
    <rect
       style="fill:#916f6f;fill-opacity:1"
       id="rect7034"
       width="1928.5714"
       height="48.57143"
       x="-2.8571429"
       y="845.71429" />
    <rect
       style="fill:#999999;fill-opacity:1"
       id="rect7036"
       width="1928.5714"
       height="254.28572"
       x="-2.8571429"
       y="591.42859" />
    <ellipse
       style="fill:#000000;fill-opacity:1"
       id="path7040"
       cx="1348.5714"
       cy="267.14285"
       rx="108.57143"
       ry="107.14286" />
    <path
       style="fill:#000000;stroke:#000000;stroke-width:1px;stroke-linecap:butt;stroke-linejoin:miter;stroke-opacity:1"
       d="m 1265.7143,268.57143 -31.4286,308.57143 5.7143,-5.71428 14.2857,5.71428 h 17.1429 L 1285.7143,260 Z"
       id="path7070"
       inkscape:connector-curvature="0" />
    <path
       style="fill:#000000;stroke:#000000;stroke-width:1px;stroke-linecap:butt;stroke-linejoin:miter;stroke-opacity:1"
       d="m 1240,565.71429 -28.5714,197.14286 14.2857,2.85714 25.7143,-214.28571 z"
       id="path7080"
       inkscape:connector-curvature="0" />
    <path
       style="fill:#000000;stroke:#000000;stroke-width:1px;stroke-linecap:butt;stroke-linejoin:miter;stroke-opacity:1"
       d="m 1268.5714,571.42858 80,77.14285 22.8572,108.57143 h -14.2857 l -25.7143,-100 -82.8572,-82.85714 z"
       id="path7082"
       inkscape:connector-curvature="0" />
    <path
       style="fill:#000000;fill-opacity:1;stroke-width:2.85714293"
       d=""
       id="path7092"
       inkscape:connector-curvature="0" />
    <path
       style="fill:#000000;fill-opacity:1;stroke-width:2.85714293"
       d=""
       id="path7096"
       inkscape:connector-curvature="0" />
    <path
       style="fill:#000000;fill-opacity:1;stroke-width:2.85714293"
       d=""
       id="path7098"
       inkscape:connector-curvature="0" />
    <path
       style="fill:#000000;fill-opacity:1;stroke-width:2.85714293"
       d=""
       id="path7100"
       inkscape:connector-curvature="0" />
    <path
       style="fill:#000000;fill-opacity:1;stroke-width:2.85714293"
       d=""
       id="path7102"
       inkscape:connector-curvature="0" />
    <path
       style="fill:#000000;fill-opacity:1;stroke-width:2.85714293"
       d=""
       id="path7104"
       inkscape:connector-curvature="0" />
    <path
       style="fill:#000000;fill-opacity:1;stroke-width:2.85714293"
       d=""
       id="path7106"
       inkscape:connector-curvature="0" />
    <path
       style="fill:#4d4d4d;fill-opacity:1;stroke-width:2.85714293"
       d=""
       id="path7108"
       inkscape:connector-curvature="0" />
    <rect
       style="fill:#4d4d4d;fill-opacity:1"
       id="rect7110"
       width="1931.4286"
       height="200"
       x="0"
       y="891.42859" />
    <path
       style="fill:#000000;stroke:#000000;stroke-width:1px;stroke-linecap:butt;stroke-linejoin:miter;stroke-opacity:1"
       d="m 1268.5714,431.42858 57.1429,54.28571 65.7143,-8.57143 2.8571,11.42857 -71.4286,8.57143 -60,-48.57143 z"
       id="path7112"
       inkscape:connector-curvature="0" />
    <path
       style="fill:#000000;stroke:#000000;stroke-width:1px;stroke-linecap:butt;stroke-linejoin:miter;stroke-opacity:1"
       d="m 1274.2857,411.42858 48.5714,45.71428 54.2858,11.42857 V 460 l -51.4286,-17.14285 -51.4286,-54.28572 z"
       id="path7114"
       inkscape:connector-curvature="0" />
    <rect
       style="fill:#cccccc;fill-opacity:1"
       id="rect7139"
       width="68.571426"
       height="34.285713"
       x="1377.1428"
       y="451.42859" />
    <path
       style="fill:none;stroke:#000000;stroke-width:1px;stroke-linecap:butt;stroke-linejoin:miter;stroke-opacity:1"
       d="m 1371.4286,448.57143 2.8571,40 74.2857,-2.85714 -2.8571,-34.28571 z"
       id="path7141"
       inkscape:connector-curvature="0" />
    <ellipse
       style="fill:#00ff00;fill-opacity:1"
       id="path7143"
       cx="1391.4286"
       cy="461.42856"
       rx="5.7142859"
       ry="7.1428571" />
    <ellipse
       style="fill:#ff0000;fill-opacity:1"
       id="path7145"
       cx="1388.5714"
       cy="478.57147"
       rx="5.7142859"
       ry="7.1428571" />
    <rect
       style="fill:#cccccc;fill-opacity:1;stroke-width:0.90076113"
       id="rect7149"
       width="169.41786"
       height="264.55759"
       x="923.26178"
       y="151.39758" />
    <ellipse
       style="fill:#00ff00;fill-opacity:1;stroke-width:0.90076113"
       id="path7151"
       cx="964.98395"
       cy="364.87726"
       rx="21.493311"
       ry="22.26475" />
    <ellipse
       style="fill:#ff0000;fill-opacity:1;stroke-width:0.90076113"
       id="path7153"
       cx="1042.1073"
       cy="364.8772"
       rx="22.75762"
       ry="22.26475" />
    <path
       style="fill:none;stroke:#000000;stroke-width:0.90076113px;stroke-linecap:butt;stroke-linejoin:miter;stroke-opacity:1"
       d="m 903.0328,117.34561 2.5286,345.75844 209.8759,-2.61937 V 117.34561 Z"
       id="path7159"
       inkscape:connector-curvature="0" />
    <path
       style="fill:#1a1a1a;fill-opacity:1;stroke-width:2.57360339"
       d="m 907.2262,427.08755 c -0.9044,-18.36842 -1.6489,-94.98535 -1.6545,-170.25984 l -0.011,-136.86272 h 103.6737 103.6735 V 288.5269 457.08883 l -20.8608,1.68219 c -11.4736,0.92522 -57.3822,1.6893 -102.0191,1.69797 l -81.1579,0.0156 z M 1092.6796,283.67637 V 151.39758 h -84.7089 -84.7089 v 132.27879 132.2788 h 84.7089 84.7089 z"
       id="path7161"
       inkscape:connector-curvature="0" />
    <path
       style="fill:#ffffff;fill-opacity:1;stroke-width:2.85714293"
       d=""
       id="path7173"
       inkscape:connector-curvature="0" />
    <path
       style="fill:#ffffff;fill-opacity:1;stroke-width:2.85714293"
       d=""
       id="path7179"
       inkscape:connector-curvature="0" />
    <path
       style="fill:#ffffff;fill-opacity:1;stroke-width:2.85714293"
       d=""
       id="path7181"
       inkscape:connector-curvature="0" />
    <ellipse
       style="fill:#ffffff;fill-opacity:1;stroke-width:0.90076113"
       id="path7195"
       cx="1001.6492"
       cy="438.21991"
       rx="12.643123"
       ry="11.787219" />
    <rect
       style="fill:#cccccc;fill-opacity:1"
       id="rect7199"
       width="11.428572"
       height="97.14286"
       x="265.71429"
       y="491.42856" />
    <rect
       style="fill:#cccccc;fill-opacity:1"
       id="rect7201"
       width="14.285714"
       height="97.14286"
       x="588.57141"
       y="491.42856" />
    <rect
       style="fill:#550000;fill-opacity:1"
       id="rect7203"
       width="497.14285"
       height="17.142857"
       x="191.42857"
       y="477.14285" />
    <rect
       style="fill:#550000;fill-opacity:1"
       id="rect7205"
       width="500"
       height="14.285714"
       x="197.14285"
       y="457.14285" />
    <rect
       style="fill:#550000;fill-opacity:1"
       id="rect7207"
       width="480"
       height="14.285714"
       x="200"
       y="500" />
    <rect
       style="fill:#550000;fill-opacity:1"
       id="rect7209"
       width="502.85715"
       height="14.285714"
       x="200"
       y="434.28571" />
    <rect
       style="fill:#550000;fill-opacity:1"
       id="rect7225"
       width="494.28571"
       height="62.857143"
       x="205.71428"
       y="342.85715" />
    <path
       style="fill:#000000;stroke:#000000;stroke-width:1px;stroke-linecap:butt;stroke-linejoin:miter;stroke-opacity:1"
       d="m 1257.1429,568.57143 -28.5715,194.28572 22.8572,-217.14286 z"
       id="path7231"
       inkscape:connector-curvature="0" />
    <rect
       y="146.97249"
       x="1654.9163"
       height="262.41367"
       width="170.99741"
       id="rect868"
       style="fill:#cccccc;fill-opacity:1;stroke-width:0.90127623" />
    <ellipse
       cy="358.72223"
       cx="1697.0276"
       id="circle870"
       style="fill:#00ff00;fill-opacity:1;stroke-width:0.90127623"
       rx="21.693701"
       ry="22.084318" />
    <ellipse
       ry="22.084318"
       rx="22.969799"
       cy="358.72211"
       cx="1774.8699"
       id="ellipse872"
       style="fill:#ff0000;fill-opacity:1;stroke-width:0.90127623" />
    <path
       inkscape:connector-curvature="0"
       id="path874"
       d="m 1634.4984,113.19645 2.5522,342.95649 211.8326,-2.5982 V 113.19645 Z"
       style="fill:none;stroke:#000000;stroke-width:0.90127623px;stroke-linecap:butt;stroke-linejoin:miter;stroke-opacity:1" />
    <path
       inkscape:connector-curvature="0"
       id="path876"
       d="m 1638.7309,420.42823 c -0.9128,-18.21954 -1.6642,-94.21555 -1.6699,-168.88003 l -0.011,-135.7536 h 104.6403 104.6401 V 282.99051 450.1864 l -21.0552,1.66857 c -11.5807,0.91772 -57.9172,1.67567 -102.9703,1.68422 l -81.9146,0.0154 z M 1825.9134,278.17929 V 146.97247 h -85.4987 -85.4987 v 131.20682 131.20684 h 85.4987 85.4987 z"
       style="fill:#1a1a1a;fill-opacity:1;stroke-width:2.57507515" />
    <ellipse
       ry="11.691697"
       rx="12.761"
       cy="431.47046"
       cx="1734.0344"
       id="ellipse898"
       style="fill:#ffffff;fill-opacity:1;stroke-width:0.90127623" />
    <path
       style="fill:#999999;stroke:#000000;stroke-width:0.38382453px;stroke-linecap:butt;stroke-linejoin:miter;stroke-opacity:1"
       d="m 937.3932,241.4918 14.1584,-44.1478 h 15.7316 l 15.2072,44.72115 -9.9634,-0.57335 -8.9145,-19.49383 h -9.439 l -8.9145,21.78722 -8.9146,0.57335 z"
       id="path932"
       inkscape:connector-curvature="0" />
    <path
       style="fill:#666666;stroke:#000000;stroke-width:0.38382453px;stroke-linecap:butt;stroke-linejoin:miter;stroke-opacity:1"
       d="m 954.6979,216.26449 c 6.817,0 7.8658,0 7.8658,0 l -3.1463,-10.32027 -2.622,-0.57335 z"
       id="path934"
       inkscape:connector-curvature="0" />
    <path
       style="fill:#999999;stroke:#000000;stroke-width:0.38382453px;stroke-linecap:butt;stroke-linejoin:miter;stroke-opacity:1"
       d="m 987.7342,208.23762 c 0.5244,33.82753 0.5244,33.82753 0.5244,33.82753 h 6.2927 l -0.5244,-20.64053 7.3414,8.60022 4.1951,-9.74692 2.6219,21.21388 5.7682,-0.57335 -4.1951,-32.68083 -8.3901,1.72004 -1.0488,9.74692 -5.2439,-8.60022 z"
       id="path938"
       inkscape:connector-curvature="0" />
    <path
       style="fill:#999999;stroke:#000000;stroke-width:0.38382453px;stroke-linecap:butt;stroke-linejoin:miter;stroke-opacity:1"
       d="m 1020.7705,210.53101 c 0,2.29339 0.5244,29.81409 0.5244,29.81409 l 6.817,-0.57334 -1.0487,-29.24075 z"
       id="path940"
       inkscape:connector-curvature="0" />
    <path
       style="fill:#999999;stroke:#000000;stroke-width:0.38382453px;stroke-linecap:butt;stroke-linejoin:miter;stroke-opacity:1"
       d="m 1019.7218,199.6374 0.5244,5.16013 6.817,-1.1467 -0.5244,-5.16013 z"
       id="path942"
       inkscape:connector-curvature="0" />
    <path
       style="fill:#999999;stroke:#000000;stroke-width:1px;stroke-linecap:butt;stroke-linejoin:miter;stroke-opacity:1"
       d="m 1666.0687,212.08338 -0.7143,46.42857 8.5715,0.71429 v -19.64286 h 12.8571 l -0.7143,-7.14286 h -12.5 l -0.3571,-9.64285 h 22.8571 l -0.3571,-10 z"
       id="path946"
       inkscape:connector-curvature="0" />
    <path
       style="fill:#999999;stroke:#000000;stroke-width:1px;stroke-linecap:butt;stroke-linejoin:miter;stroke-opacity:1"
       d="m 1696.0687,238.15481 v 20 h 5 v -12.14286 l 9.2857,-0.35714 -0.3571,-10.71429 z"
       id="path948"
       inkscape:connector-curvature="0" />
    <path
       style="fill:#808080;stroke:#000000;stroke-width:1px;stroke-linecap:butt;stroke-linejoin:miter;stroke-opacity:1"
       d="m 1726.0687,245.65481 14.6429,-0.35714 v -11.78572 h -22.8572 v 23.92857 l 15.7143,0.35715 -0.7143,-5.71429 -11.0714,-0.35714 0.7143,-6.42857 z"
       id="path950"
       inkscape:connector-curvature="0" />
    <path
       style="fill:#4d4d4d;stroke:#000000;stroke-width:1px;stroke-linecap:butt;stroke-linejoin:miter;stroke-opacity:1"
       d="m 1723.5687,238.15481 -0.3571,3.92857 h 12.1428 l 1.4286,-4.64286 z"
       id="path952"
       inkscape:connector-curvature="0" />
    <path
       style="fill:#808080;stroke:#000000;stroke-width:1px;stroke-linecap:butt;stroke-linejoin:miter;stroke-opacity:1"
       d="m 1749.6402,236.01195 v 21.42857 h 5 v -13.21428 h 10 l -0.7143,-11.78572 z"
       id="path954"
       inkscape:connector-curvature="0" />
    <path
       style="fill:#808080;stroke:#000000;stroke-width:1px;stroke-linecap:butt;stroke-linejoin:miter;stroke-opacity:1"
       d="m 1777.1402,243.15481 17.8571,-0.35714 -0.3571,-11.42858 h -24.6429 l 0.7143,25.35715 h 16.0714 l -0.3571,-4.64286 h -11.7857 l -0.3572,-8.92857 z"
       id="path956"
       inkscape:connector-curvature="0" />
    <path
       style="fill:#666666;stroke:#000000;stroke-width:1px;stroke-linecap:butt;stroke-linejoin:miter;stroke-opacity:1"
       d="m 1777.1402,235.65481 v 4.28571 l 11.7857,0.35715 1.7857,-5.35715 z"
       id="path958"
       inkscape:connector-curvature="0" />
  </g>
</svg>
